<?xml version="1.0" encoding="UTF-8"?>
<svg id="Layer_1" data-name="Layer 1" xmlns="http://www.w3.org/2000/svg" viewBox="0 0 46 46">
  <defs>
    <style>
      .cls-1 {
        fill: #e64e39;
      }

      .cls-2 {
        fill: #fff;
      }

      .cls-3 {
        fill: #06283d;
      }

      .cls-4 {
        fill: #2a9ddd;
      }
    </style>
  </defs>
  <rect class="cls-3" x="1.62" y="1.62" width="42.76" height="42.76" rx="4" ry="4"/>
  <g>
    <path class="cls-4" d="M18.05,16.45c-.08,.42,.01,.84,.27,1.18,.17,.22,.39,.4,.64,.51,.29,.1,.62,.09,.9-.02,.29-.1,.6-.08,.87,.05s.48,.37,.58,.65c.27,.56,.05,1.24-.5,1.53-.37,.19-.64,.54-.7,.96-.04,.18-.04,.37,0,.56,.12,.63,.67,1.09,1.31,1.11,.64,0,1.17,.5,1.18,1.14,0,.64-.5,1.17-1.14,1.18-.64,.01-1.18,.48-1.27,1.12-.11,.6,.21,1.2,.77,1.46,.58,.23,.86,.89,.64,1.47-.09,.28-.29,.51-.55,.64-.26,.13-.56,.15-.84,.06-.62-.17-1.27,.09-1.6,.64-.37,.51-.34,1.21,.07,1.69h-6.01c2.99-1.47,5.02-4.56,4.95-8.4-.06-3.54-2.41-6.2-4.88-7.53,0,0,5.32,0,5.32,0Z"/>
    <path class="cls-2" d="M35.1,11.61c.86,0,1.56,.7,1.56,1.56v19.67c0,.86-.7,1.56-1.56,1.56H10.9c-.86,0-1.56-.7-1.56-1.56V13.17c0-.86,.7-1.56,1.56-1.56h24.2Zm-.45,4.84H11.33v15.93h23.32v-15.93Zm-1.03-3.34c-.55,0-1,.45-1,1s.45,1,1,1,1-.45,1-1-.45-1-1-1Zm-3.56,0c-.26,0-.52,.1-.7,.29s-.29,.44-.29,.7c0,.55,.45,1,1,1s1-.45,1-1-.45-1-1-1Zm-3.56,0c-.55,0-1,.45-1,1s.45,1,1,1,1-.45,1-1-.45-1-1-1Z"/>
    <path class="cls-1" d="M33.12,16.45c-3.37,1.73-5.37,5.44-4.65,9.69,.51,3,2.61,5.11,4.88,6.23h-7.11c-.26-.13-.48-.33-.64-.58-.36-.51-.25-1.22,.26-1.6,.34-.24,.55-.64,.55-1.06,0-.19-.02-.37-.08-.55-.22-.6-.83-.97-1.46-.89-.63,.11-1.23-.31-1.34-.94s.31-1.23,.94-1.34c.61-.12,1.05-.65,1.06-1.28,.01-.62-.39-1.16-.98-1.33-.6-.15-.97-.75-.84-1.35,.04-.29,.21-.56,.45-.72s.54-.23,.83-.18c.64,.07,1.24-.28,1.49-.87,.3-.57,.16-1.27-.34-1.68-.48-.37-.59-1.04-.26-1.54h7.24Z"/>
  </g>
</svg>