<svg width="46" height="46" viewBox="0 0 46 46" fill="none" xmlns="http://www.w3.org/2000/svg">
<rect width="46" height="46" rx="4" fill="#1BDBDB"/>
<path d="M33.1524 12.1425C30.2425 10.3195 26.4117 10.7538 22.995 12.9065C19.5891 10.7538 15.7559 10.3195 12.8495 12.1425C8.25204 15.0235 7.69308 22.443 11.6022 28.7154C14.4837 33.3397 18.9898 36.0493 23.001 35.9993C27.0122 36.0493 31.5183 33.3397 34.3997 28.7154C38.3041 22.443 37.7499 15.0235 33.1524 12.1425ZM13.7158 27.391C12.9098 26.1097 12.3016 24.7135 11.912 23.2498C11.5658 21.9793 11.4334 20.6597 11.5204 19.3455C11.6948 17.0274 12.6359 15.2222 14.1692 14.2619C15.7025 13.3016 17.7294 13.2433 19.8881 14.1025C20.2121 14.2322 20.5325 14.3821 20.8506 14.5475C19.651 15.6443 18.6079 16.9016 17.7508 18.284C15.3773 22.092 14.6534 26.3295 15.4817 29.7079C14.8212 28.9934 14.2299 28.2176 13.7158 27.391ZM34.0912 23.2487C33.701 24.7122 33.0929 26.1082 32.2873 27.3898C31.7728 28.2176 31.1815 28.995 30.5214 29.7115C31.2619 26.6829 30.7588 22.9726 28.943 19.4931C28.914 19.4358 28.8734 19.3852 28.8237 19.3446C28.7739 19.3041 28.7163 19.2744 28.6544 19.2576C28.5926 19.2408 28.5279 19.2372 28.4646 19.247C28.4012 19.2568 28.3407 19.2798 28.2868 19.3146L22.626 22.8607C22.5743 22.893 22.5296 22.9352 22.4942 22.9849C22.4589 23.0346 22.4336 23.0908 22.42 23.1502C22.4063 23.2097 22.4045 23.2713 22.4145 23.3315C22.4246 23.3916 22.4465 23.4492 22.4788 23.5009L23.3095 24.8325C23.3416 24.8843 23.3836 24.9291 23.433 24.9646C23.4825 25 23.5384 25.0253 23.5976 25.039C23.6568 25.0527 23.7181 25.0546 23.7781 25.0444C23.838 25.0343 23.8953 25.0125 23.9468 24.9801L27.6162 22.681C27.7349 23.038 27.8536 23.395 27.9426 23.752C28.2887 25.021 28.4215 26.3389 28.3354 27.6516C28.161 29.9685 27.2199 31.7737 25.6866 32.7352C24.8957 33.2201 23.9895 33.4831 23.0627 33.4968H22.9452C22.0183 33.4834 21.112 33.2203 20.3213 32.7352C18.7868 31.7737 17.8457 29.9685 17.6713 27.6516C17.5849 26.3374 17.7172 25.0179 18.0629 23.7473C18.8582 20.8076 20.5023 18.1691 22.7885 16.1635C23.7745 15.2958 24.8974 14.5984 26.1114 14.1001C28.2642 13.2409 30.2947 13.298 31.8292 14.2595C33.3637 15.221 34.3036 17.025 34.478 19.3431C34.5661 20.6575 34.4353 21.9774 34.0912 23.2487Z" fill="white"/>
</svg>
