<svg id="Layer_1" data-name="Layer 1" xmlns="http://www.w3.org/2000/svg" viewBox="0 0 46 46"><defs><style>.cls-1{fill:#30373b;}.cls-2{fill:#95bf47;}.cls-3{fill:#5e8e3e;}.cls-4{fill:#fff;}</style></defs><rect class="cls-1" x="1.62" y="1.62" width="42.76" height="42.76" rx="4"/><path class="cls-2" d="M30.81,15.76a.23.23,0,0,0-.21-.19l-1.76,0L27.3,14a.57.57,0,0,0-.51-.07l-.71.22a5.08,5.08,0,0,0-.33-.83,2.4,2.4,0,0,0-2.12-1.46h0l-.18,0-.08-.1a1.85,1.85,0,0,0-1.47-.59,4.23,4.23,0,0,0-3.2,2.32,9.14,9.14,0,0,0-1.28,3.32l-2.25.7c-.66.21-.68.23-.76.85-.07.47-1.8,13.85-1.8,13.85l14.5,2.5,6.28-1.56S30.83,15.88,30.81,15.76Zm-5.45-1.35-1.13.35a6.48,6.48,0,0,0-.34-2.07C24.75,12.85,25.18,13.83,25.36,14.41ZM23.47,15l-2.42.75a5.69,5.69,0,0,1,1.23-2.37,2.36,2.36,0,0,1,.82-.6A5.49,5.49,0,0,1,23.47,15Zm-1.55-3a1.13,1.13,0,0,1,.69.18,3.3,3.3,0,0,0-.89.69A6.62,6.62,0,0,0,20.22,16l-2,.61C18.62,14.79,20.16,12,21.92,12Z"/><path class="cls-3" d="M30.6,15.57l-1.76,0L27.3,14a.34.34,0,0,0-.19-.09V34.77l6.28-1.56s-2.56-17.33-2.58-17.45A.23.23,0,0,0,30.6,15.57Z"/><path class="cls-4" d="M23.62,18.8l-.72,2.73a4.19,4.19,0,0,0-1.78-.31c-1.42.09-1.43,1-1.42,1.21.08,1.22,3.29,1.48,3.47,4.34.14,2.25-1.19,3.79-3.12,3.91a4.66,4.66,0,0,1-3.58-1.21L17,27.38a4.46,4.46,0,0,0,2.31.91.92.92,0,0,0,.88-1c-.1-1.59-2.72-1.49-2.88-4.11-.14-2.2,1.31-4.43,4.5-4.64A4,4,0,0,1,23.62,18.8Z"/></svg>