<svg width="46" height="46" viewBox="0 0 46 46" fill="none" xmlns="http://www.w3.org/2000/svg">
<path d="M41.6969 0H4.30309C1.92656 0 0 1.92656 0 4.30309V41.6969C0 44.0734 1.92656 46 4.30309 46H41.6969C44.0734 46 46 44.0734 46 41.6969V4.30309C46 1.92656 44.0734 0 41.6969 0Z" fill="black"/>
<path d="M15.0622 23.6302L23.6522 15.0402C23.9362 14.7476 24.2769 14.516 24.6534 14.3596C25.03 14.2031 25.4345 14.125 25.8422 14.1302C26.2484 14.1288 26.651 14.2076 27.0268 14.3621C27.4026 14.5165 27.7442 14.7435 28.0322 15.0302L28.7022 15.7002L30.0422 14.3702L29.3722 13.7002C28.4349 12.7659 27.1655 12.2412 25.8422 12.2412C24.5188 12.2412 23.2494 12.7659 22.3122 13.7002L13.7222 22.2902L15.0622 23.6302Z" fill="white"/>
<path d="M26.5318 17.87L25.1918 16.53L16.5918 25.13C16.011 25.7095 15.2238 26.0345 14.4033 26.0336C13.5828 26.0327 12.7963 25.7058 12.2168 25.125C11.6373 24.5442 11.3123 23.7569 11.3132 22.9365C11.3142 22.116 11.641 21.3295 12.2218 20.75L19.6318 13.34L18.2918 12L10.8818 19.41C10.3331 19.8478 9.88267 20.3962 9.5599 21.0195C9.23713 21.6429 9.04924 22.3273 9.00845 23.028C8.96766 23.7288 9.07489 24.4303 9.32316 25.0869C9.57142 25.7435 9.95517 26.3405 10.4494 26.839C10.9437 27.3375 11.5373 27.7263 12.1918 27.9802C12.8462 28.234 13.5468 28.3472 14.2479 28.3124C14.949 28.2776 15.6349 28.0956 16.261 27.7781C16.8871 27.4607 17.4394 27.015 17.8818 26.47L26.5318 17.87Z" fill="white"/>
<path d="M35.0819 19.4098C34.1473 18.4936 32.8907 17.9805 31.5819 17.9805C30.2732 17.9805 29.0166 18.4936 28.0819 19.4098L19.4819 28.0098L20.8219 29.3498L29.4219 20.7498C29.7082 20.4616 30.0486 20.2329 30.4236 20.0769C30.7986 19.9208 31.2008 19.8405 31.6069 19.8405C32.0131 19.8405 32.4153 19.9208 32.7902 20.0769C33.1652 20.2329 33.5057 20.4616 33.7919 20.7498C34.0804 21.0369 34.3093 21.3781 34.4654 21.754C34.6216 22.1298 34.702 22.5328 34.702 22.9398C34.702 23.3467 34.6216 23.7497 34.4654 24.1255C34.3093 24.5014 34.0804 24.8426 33.7919 25.1298L26.3319 32.5398L27.6719 33.8798L35.0819 26.4698C36.0162 25.5325 36.5409 24.2631 36.5409 22.9398C36.5409 21.6164 36.0162 20.347 35.0819 19.4098" fill="white"/>
<path d="M30.9019 22.25L22.3119 30.84C21.7294 31.4177 20.9422 31.7418 20.1219 31.7418C19.3015 31.7418 18.5144 31.4177 17.9319 30.84L17.2619 30.17L15.9219 31.5L16.5919 32.17C17.5291 33.1043 18.7985 33.6289 20.1219 33.6289C21.4452 33.6289 22.7146 33.1043 23.6519 32.17L32.2419 23.58L30.9019 22.25Z" fill="white"/>
</svg>
