<svg width="46" height="46" viewBox="0 0 46 46" fill="none" xmlns="http://www.w3.org/2000/svg">
<rect width="46" height="46" rx="4" fill="#4353FF"/>
<path d="M30.742 19.8486L28.2888 27.8033C28.2888 27.1941 26.597 14 26.597 14C22.7057 14 20.6417 16.8372 19.5589 19.8486L16.5644 27.8207C16.5644 27.2463 16.1414 19.9182 16.1414 19.9182C15.9969 18.3318 15.292 16.855 14.1602 15.7675C13.0284 14.68 11.5482 14.0573 10 14.0174L13.1807 34C17.2411 34 19.4405 31.1627 20.574 28.1514L23.1118 21.3629C23.1118 21.6414 24.8036 34 24.8036 34C26.464 33.9978 28.0805 33.4517 29.419 32.4408C30.7574 31.4299 31.7482 30.0068 32.2477 28.3777L38 14C33.9396 14 31.8079 16.8372 30.7251 19.8486H30.742Z" fill="white"/>
</svg>
