<svg width="46" height="46" viewBox="0 0 46 46" fill="none" xmlns="http://www.w3.org/2000/svg">
<rect width="46" height="46" rx="4" fill="#F5F5F5"/>
<path d="M25.749 16.2803C25.0159 16.6469 24.6982 17.3311 24.6982 19.1884C24.6982 19.1884 25.0648 18.8218 25.6513 18.6019C26.0789 18.443 26.3844 18.2353 26.6043 18.0765C27.2397 17.6 27.3375 17.0257 27.3375 16.0238C27.3252 16.0238 26.3233 15.9627 25.749 16.2803V16.2803Z" fill="#FBBD71"/>
<path d="M21.2648 16.7078C20.6295 17.2332 20.4706 18.1374 20.4706 18.1374L18.4179 26.0061L16.7318 19.5669C16.5729 18.8827 16.2552 18.0396 15.7787 17.4531C15.1922 16.7078 13.9704 16.6589 13.8237 16.6589C13.7138 16.6589 12.5041 16.7078 11.8688 17.4531C11.3922 18.0396 11.0746 18.8827 10.9157 19.5669L9.3273 26.0061L7.27458 18.1374C7.27458 18.1374 7.11574 17.2943 6.48037 16.7078C5.47845 15.8036 4 16.0236 4 16.0236L7.90994 30.7469C7.90994 30.7469 9.18067 30.8569 9.81604 30.5392C10.6591 30.1116 11.0868 29.8061 11.5633 27.79C12.0398 25.9939 13.3106 20.7644 13.4083 20.3978C13.4572 20.239 13.5671 19.7624 13.8848 19.7624C14.2025 19.7624 14.3125 20.1901 14.3613 20.3978C14.4713 20.7644 15.7298 25.9939 16.2064 27.79C16.7318 29.7939 17.0983 30.1116 17.9536 30.5392C18.589 30.8569 19.8597 30.7469 19.8597 30.7469L23.7452 16.0236C23.7452 16.0236 22.2668 15.8158 21.2648 16.7078V16.7078ZM27.3253 18.394C27.3253 18.394 27.0564 18.7605 26.531 19.0782C26.1645 19.2859 25.8468 19.3959 25.4802 19.6036C24.8449 19.9213 24.686 20.239 24.686 20.7155V30.6981C24.686 30.6981 25.688 30.808 26.3233 30.4903C27.1664 30.0627 27.3253 29.6473 27.3253 27.8511V18.9805V18.394ZM37.039 23.4158L41.9998 16.0724C41.9998 16.0724 39.947 15.7059 38.884 16.6589C38.1998 17.2454 37.5155 18.3451 37.5155 18.3451L35.7194 20.9843C35.6094 21.1431 35.5117 21.2531 35.3529 21.2531C35.194 21.2531 35.0352 21.0943 34.9863 20.9843L33.1902 18.3451C33.1902 18.3451 32.4571 17.2943 31.8217 16.6589C30.7709 15.7059 28.7059 16.0724 28.7059 16.0724L33.5078 23.4036L28.596 30.7347C28.596 30.7347 30.7587 31.0035 31.8217 30.0505C32.5059 29.464 33.1413 28.4621 33.1413 28.4621L34.9374 25.8229C35.0474 25.664 35.1451 25.554 35.304 25.554C35.4628 25.554 35.6217 25.7129 35.6705 25.8229L37.4667 28.4621C37.4667 28.4621 38.1509 29.464 38.7863 30.0505C39.8371 31.0035 41.9509 30.7347 41.9509 30.7347L37.039 23.4158Z" fill="black"/>
</svg>
