<svg id="Layer_1" data-name="Layer 1" xmlns="http://www.w3.org/2000/svg" viewBox="0 0 46 46"><defs><style>.cls-1{fill:#674399;}.cls-2{fill:#fff;}</style></defs><rect class="cls-1" x="1.62" y="1.62" width="42.76" height="42.76" rx="4"/><path class="cls-2" d="M11.68,16H34.31a2.59,2.59,0,0,1,2.59,2.59V27.2a2.59,2.59,0,0,1-2.59,2.59H26.19l1.12,2.73-4.9-2.73H11.69A2.59,2.59,0,0,1,9.1,27.2V18.56A2.58,2.58,0,0,1,11.68,16Z"/><path class="cls-1" d="M10.69,18.33A.89.89,0,0,1,11.4,18a.83.83,0,0,1,1,.81q.53,3.56,1.14,6L16,20.08a1,1,0,0,1,.84-.67c.5,0,.81.28.93.94a20.9,20.9,0,0,0,1.07,3.87A17.59,17.59,0,0,1,20.33,18a.87.87,0,0,1,.75-.49.93.93,0,0,1,.71.22.87.87,0,0,1,.35.65,1,1,0,0,1-.11.54A13.83,13.83,0,0,0,20.93,23a20.91,20.91,0,0,0-.31,4.3,1.4,1.4,0,0,1-.14.75.74.74,0,0,1-.6.41A1.16,1.16,0,0,1,19,28a11.24,11.24,0,0,1-2.5-4.82c-.73,1.45-1.27,2.53-1.62,3.26-.67,1.27-1.24,1.93-1.71,2-.31,0-.56-.23-.79-.78a48.59,48.59,0,0,1-1.87-8.57,1,1,0,0,1,.19-.76ZM35,20.11a2.61,2.61,0,0,0-1.81-1.32,3.4,3.4,0,0,0-.61-.06,3,3,0,0,0-2.66,1.69A6.05,6.05,0,0,0,29,23.61a4.42,4.42,0,0,0,.54,2.24,2.62,2.62,0,0,0,1.81,1.31,3.4,3.4,0,0,0,.61.06,3,3,0,0,0,2.66-1.69,6.11,6.11,0,0,0,.88-3.2A4.18,4.18,0,0,0,35,20.11Zm-1.43,3.13a3,3,0,0,1-.86,1.67,1.07,1.07,0,0,1-.91.36c-.27-.06-.5-.29-.67-.74a3,3,0,0,1-.2-1,3.71,3.71,0,0,1,.08-.83,3.56,3.56,0,0,1,.6-1.34c.37-.56.76-.78,1.17-.7s.5.29.67.73a3,3,0,0,1,.2,1,3.8,3.8,0,0,1-.08.84Zm-5.65-3.13a2.59,2.59,0,0,0-1.8-1.32,3.4,3.4,0,0,0-.61-.06,3,3,0,0,0-2.66,1.69,6,6,0,0,0-.88,3.19,4.42,4.42,0,0,0,.54,2.24,2.62,2.62,0,0,0,1.81,1.31,3.31,3.31,0,0,0,.61.06,3,3,0,0,0,2.65-1.69,6,6,0,0,0,.89-3.2,4.27,4.27,0,0,0-.55-2.22Zm-1.43,3.13a3,3,0,0,1-.86,1.67,1.09,1.09,0,0,1-.92.36c-.27-.06-.49-.29-.66-.74a2.78,2.78,0,0,1-.21-1,4.41,4.41,0,0,1,.08-.83,3.9,3.9,0,0,1,.6-1.34c.38-.56.77-.78,1.18-.7s.49.29.66.73a2.79,2.79,0,0,1,.21,1,3.8,3.8,0,0,1-.08.84Z"/></svg>